# 
# Wavefront OBJ file
# Converted by the DEEP Exploration Deep Exploration 6.5 x64 6.5.0.9182
# Right Hemisphere, LTD
# http://www.righthemisphere.com/
# 
#mtllib bun_b.mtl
# object bun_b
g bun_b
v 4.25188 155.80379 -16.04371
v -4.24002 155.72279 -15.87241
v -3.60642 157.94479 -15.45391
v 3.70908 157.94478 -15.45391
v 0.04298 154.65149 -14.48901
v 0.05128 156.40979 -14.37021
v -2.10972 157.30209 -14.29231
v 2.21228 157.30209 -14.29231
v -3.61472 159.03769 -13.95681
v 3.70078 159.03769 -13.95681
v 0.01488 159.14079 -13.76251
v -2.58521 159.89169 -13.66871
v 2.61499 159.89168 -13.66871
v -2.54892 156.50429 -13.53211
v 2.63498 156.50418 -13.53211
v -4.31882 159.17549 -13.47011
v 4.40488 159.17548 -13.47001
v -4.16171 160.17319 -13.37371
v 4.24779 160.17319 -13.37371
v 0.04298 157.50279 -12.87311
v -2.11802 158.39499 -12.79521
v 2.20408 158.39499 -12.79521
v -3.41381 160.95050 -12.68241
v 3.49989 160.95049 -12.68231
v 6.02899 160.38329 -12.63261
v -5.37081 160.37109 -12.45231
v 0.04298 155.35329 -12.42411
v -1.44252 155.86159 -12.37051
v 1.52858 155.86148 -12.37051
v 0.04298 158.77959 -12.30591
v 0.03257 149.29568 -12.24691
v -2.55711 159.53049 -12.21211
v 2.64309 159.53049 -12.21211
v 0.04307 148.84599 -12.05411
v 0.04309 161.78358 -11.84621
v -4.27983 148.88620 -11.80131
v 4.36587 148.88618 -11.80131
v -2.75831 162.22939 -11.74521
v 2.84439 162.22939 -11.74511
v 0.04299 159.58839 -11.62181
v -2.75831 160.30780 -11.52071
v 2.84439 160.30779 -11.52071
v 0.04298 152.39999 -10.51171
v 0.04299 159.88889 -10.39621
v -2.32331 160.26549 -10.31091
v 2.40939 160.26538 -10.31091
v -1.47182 152.44019 -10.25891
v 1.55788 152.44009 -10.25891
v 0.04297 149.20898 -10.25851
v -1.47183 149.24919 -10.00571
v 1.55787 149.24919 -10.00571
v -2.39242 152.83519 -9.56171
v 2.49698 152.83519 -9.56171
v -3.42913 149.91789 -9.30851
v 3.51517 149.91788 -9.30851
v -3.49982 153.99249 -8.70921
v 3.58588 153.99248 -8.70921
v -4.97183 151.00389 -8.39451
v 5.05788 151.00388 -8.39451
v 0.04298 153.78009 -8.01551
v -2.81362 153.85590 -7.53871
v 2.89968 153.85588 -7.53871
v -5.99072 151.71530 -7.52531
v 6.07678 151.71529 -7.52521
v 0.04298 154.75139 -7.34991
v 8.48708 154.67618 -7.33581
v -7.82892 154.66400 -7.15561
v -6.62252 152.21539 -7.10491
v 6.70858 152.21529 -7.10491
v -2.37012 154.81540 -6.94721
v 2.45608 154.81538 -6.94721
v -4.83762 154.60080 -6.22401
v 4.92358 154.60078 -6.22401
v -3.83642 155.44460 -5.83661
v 3.92248 155.44458 -5.83661
v -6.84922 153.21440 -5.48621
v 6.93518 153.21439 -5.48621
v -5.01872 152.08260 -5.20831
v 5.10468 152.08258 -5.20831
# 79 verticies
vt 0.32742 0.22946
vt 0.32400 0.22953
vt 0.32846 0.24658
vt 0.30594 0.23998
vt 0.31084 0.23913
vt 0.30569 0.22867
vt 0.31069 0.22847
vt 0.32408 0.22951
vt 0.32750 0.22945
vt 0.32845 0.24657
vt 0.31576 0.23984
vt 0.31570 0.22854
vt 0.30790 0.22944
vt 0.30474 0.23183
vt 0.31184 0.25898
vt 0.31630 0.26158
vt 0.30241 0.26465
vt 0.29996 0.26278
vt 0.29530 0.26884
vt 0.29689 0.27182
vt 0.30178 0.25473
vt 0.30115 0.25868
vt 0.31109 0.25589
vt 0.31102 0.25313
vt 0.30449 0.25279
vt 0.30172 0.25277
vt 0.31621 0.26151
vt 0.31176 0.25889
vt 0.30481 0.23171
vt 0.30798 0.22933
vt 0.29720 0.23364
vt 0.29556 0.23659
vt 0.30013 0.24272
vt 0.30260 0.24090
vt 0.31981 0.25817
vt 0.32030 0.25448
vt 0.31267 0.23022
vt 0.32047 0.26005
vt 0.30135 0.27048
vt 0.30648 0.26383
vt 0.30242 0.25215
vt 0.31099 0.25067
vt 0.30164 0.23505
vt 0.32038 0.26001
vt 0.31274 0.23014
vt 0.32033 0.25082
vt 0.32495 0.25696
vt 0.31846 0.23217
vt 0.30382 0.24838
vt 0.31094 0.24715
vt 0.32488 0.25694
vt 0.31948 0.24800
vt 0.35787 0.18908
vt 0.35588 0.18960
vt 0.36071 0.18898
vt 0.32437 0.18960
vt 0.32237 0.18908
vt 0.31853 0.23211
vt 0.31954 0.18898
vt 0.38039 0.23550
vt 0.38470 0.25697
vt 0.37763 0.25650
vt 0.37098 0.23113
vt 0.38696 0.23662
vt 0.38902 0.25341
vt 0.37066 0.23172
vt 0.37595 0.25664
vt 0.38499 0.25674
vt 0.37953 0.23513
vt 0.38894 0.25324
vt 0.38632 0.23662
vt 0.34835 0.23123
vt 0.35094 0.25884
vt 0.33195 0.25332
vt 0.33730 0.24026
vt 0.33751 0.24034
vt 0.33198 0.25295
vt 0.35303 0.25789
vt 0.34644 0.23164
vt 0.36890 0.25954
vt 0.35957 0.22946
vt 0.36731 0.25918
vt 0.35994 0.22946
vt 0.36679 0.19725
vt 0.38265 0.22137
vt 0.33680 0.22442
vt 0.34290 0.19459
vt 0.34650 0.20010
vt 0.34073 0.22413
vt 0.38055 0.21903
vt 0.37554 0.19564
vt 0.31384 0.19775
vt 0.29675 0.21645
vt 0.29206 0.20754
vt 0.29812 0.19455
vt 0.29789 0.19460
vt 0.29137 0.21203
vt 0.30902 0.22469
vt 0.31344 0.19344
vt 0.32196 0.19613
vt 0.30824 0.22479
vt 0.32206 0.22411
vt 0.32997 0.19582
vt 0.33855 0.23873
vt 0.33395 0.25592
vt 0.35845 0.25987
vt 0.36059 0.23134
vt 0.38693 0.25378
vt 0.38724 0.23658
vt 0.30030 0.19444
vt 0.29247 0.22451
vt 0.37674 0.22472
vt 0.38769 0.19451
vt 0.38697 0.19509
vt 0.37850 0.22043
vt 0.29423 0.22021
vt 0.29959 0.19503
vt 0.33921 0.19525
vt 0.33919 0.22583
vt 0.38601 0.22507
vt 0.38603 0.19449
vt 0.29240 0.19443
vt 0.29238 0.22500
vt 0.33502 0.23734
vt 0.33238 0.25344
vt 0.38842 0.25464
vt 0.38890 0.23226
vt 0.38901 0.23211
vt 0.38864 0.25447
vt 0.33260 0.25363
vt 0.33514 0.23756
vt 0.38887 0.23518
vt 0.38826 0.25734
vt 0.35396 0.26090
vt 0.36748 0.23167
vt 0.36806 0.23167
vt 0.35377 0.26070
vt 0.38506 0.25740
vt 0.38833 0.23526
vt 0.34883 0.23621
vt 0.34031 0.25902
vt 0.38448 0.24669
vt 0.38858 0.23464
vt 0.38906 0.23506
vt 0.38496 0.24711
vt 0.34079 0.25945
vt 0.34931 0.23664
vt 0.31392 0.19144
vt 0.32045 0.22239
vt 0.33875 0.22376
vt 0.33965 0.18578
vt 0.33994 0.18622
vt 0.33822 0.22446
vt 0.31555 0.22483
vt 0.31420 0.19128
vt 0.29728 0.19497
vt 0.29263 0.21913
vt 0.29601 0.21627
vt 0.29703 0.19495
vt 0.33315 0.23888
vt 0.33318 0.25341
vt 0.35910 0.25480
vt 0.35907 0.24027
vt 0.38504 0.25432
vt 0.38502 0.23979
vt 0.29895 0.19300
vt 0.29477 0.22530
vt 0.38091 0.22001
vt 0.37775 0.19506
# 169 texture verticies
vn -0.15311 0.83100 0.53478
vn -0.65187 0.14167 0.74498
vn 0.05690 0.13741 0.98888
vn 0.20365 -0.00187 0.97904
vn 0.33417 0.93875 0.08417
vn 0.67792 0.43412 0.59327
vn 0.22983 0.80453 0.54765
vn 0.06258 0.12851 0.98973
vn -0.79686 0.56955 0.20156
vn -0.06126 0.31085 -0.94848
vn -0.49589 -0.82573 -0.26881
vn -0.21741 -0.50217 0.83699
vn -0.00252 0.83419 -0.55147
vn 0.18364 0.57598 -0.79657
vn 0.08356 -0.98258 0.16601
vn 0.00919 -0.61850 0.78573
vn 0.01107 0.74054 -0.67192
vn -0.04086 0.56479 -0.82422
vn 0.02238 -0.45179 0.89184
vn 0.16094 -0.98695 -0.00515
vn 0.62348 -0.26121 -0.73691
vn 0.90990 0.40623 -0.08405
vn -0.22132 0.60202 -0.76720
vn 0.05906 0.81701 -0.57359
vn -0.64720 0.50705 0.56924
vn 0.11547 -0.06657 0.99108
vn 0.05100 -0.08045 0.99545
vn 0.72109 0.27332 0.63665
vn 0.12325 -0.15284 0.98054
vn -0.14647 0.29470 0.94430
vn 0.01670 0.38080 0.92451
vn 0.06783 0.49342 0.86714
vn -0.23073 0.07697 0.96997
vn -0.29411 0.11318 0.94905
vn 0.05607 0.07897 0.99530
vn 0.43338 -0.09091 0.89661
vn 0.37889 0.03635 0.92473
vn -0.71466 -0.57356 0.40037
vn -0.90452 -0.38562 0.18204
vn 0.91344 -0.20702 -0.35038
vn 0.85501 -0.35539 0.37769
vn -0.50794 -0.14401 0.84927
vn 0.50034 -0.15677 0.85152
vn 0.57587 0.28209 0.76733
vn -0.65047 0.10230 0.75261
vn -0.35757 0.51936 0.77615
vn 0.64523 -0.41720 0.64002
vn 0.78465 -0.29244 0.54663
vn -0.78198 0.24127 0.57472
vn -0.73194 -0.34253 0.58901
vn 0.58708 0.32512 0.74137
vn -0.64958 -0.31211 0.69328
vn -0.05423 0.11582 0.99179
vn -0.02141 0.10644 0.99409
vn 0.05875 0.10868 0.99234
vn 0.19566 0.71107 0.67535
vn 0.20719 0.70829 0.67483
vn -0.22018 0.71283 0.66588
vn -0.20881 0.70877 0.67383
vn 0.52162 -0.80941 0.26976
vn 0.33025 -0.90400 0.27150
vn -0.31956 -0.90177 0.29102
vn 0.37643 0.89089 0.25419
vn 0.66213 0.71133 0.23579
vn -0.79672 0.60383 0.02505
vn -0.47694 0.75775 0.44536
vn 0.04873 0.42980 -0.90161
vn 0.04680 0.40849 -0.91156
vn -0.09109 0.43995 -0.89339
vn -0.44901 0.64190 0.62158
vn 0.06817 0.66904 0.74010
vn -0.46374 0.77408 0.43098
vn 0.08868 0.69723 0.71134
vn -0.52574 0.68567 -0.50344
vn -0.10316 0.80309 -0.58686
vn 0.41403 0.73629 -0.53522
vn -0.62741 0.62727 -0.46139
vn 0.62616 0.63139 -0.45745
vn -0.27746 0.93123 0.23627
vn -0.09571 0.96571 0.24132
vn 0.27779 0.93364 0.22616
vn 1.00000 -0.00255 -0.00144
# 82 normals
#usemtl casual19_f_mediumpoly_hairSG
f  48/1/1 53/2/2 29/3/3
f  29/4/3 27/5/4 48/6/1
f  43/7/5 48/6/1 27/5/4
f  52/8/6 47/9/7 28/10/8
f  27/5/4 28/11/8 47/12/7
f  47/12/7 43/7/5 27/5/4
f  73/13/9 75/14/10 46/15/11
f  46/15/11 42/16/12 73/13/9
f  62/17/13 71/18/14 75/19/10
f  75/19/10 73/20/9 62/17/13
f  42/21/12 46/22/11 44/23/15
f  44/23/15 40/24/16 42/21/12
f  60/25/17 65/26/18 71/18/14
f  71/18/14 62/17/13 60/25/17
f  41/27/19 45/28/20 74/29/21
f  74/29/21 72/30/22 41/27/19
f  72/31/22 74/32/21 70/33/23
f  70/33/23 61/34/24 72/31/22
f  40/24/16 44/23/15 45/35/20
f  45/35/20 41/36/19 40/24/16
f  61/34/24 70/33/23 65/26/18
f  65/26/18 60/25/17 61/34/24
f  57/37/25 73/13/9 42/16/12
f  42/16/12 33/38/26 57/37/25
f  73/20/9 57/39/25 62/40/13
f  33/41/26 42/21/12 40/24/16
f  40/24/16 30/42/27 33/41/26
f  56/43/28 72/31/22 61/34/24
f  32/44/29 41/27/19 72/30/22
f  72/30/22 56/45/28 32/44/29
f  30/42/27 40/24/16 41/36/19
f  41/36/19 32/46/29 30/42/27
f  33/38/26 22/47/30 57/48/25
f  22/49/30 33/41/26 30/42/27
f  30/42/27 20/50/31 22/49/30
f  21/51/32 32/44/29 56/45/28
f  20/50/31 30/42/27 32/46/29
f  32/46/29 21/52/32 20/50/31
f  53/2/2 57/48/25 22/47/30
f  22/47/30 29/3/3 53/2/2
f  48/53/1 62/53/13 57/54/25
f  57/54/25 53/54/2 48/53/1
f  29/4/3 22/49/30 20/50/31
f  20/50/31 27/5/4 29/4/3
f  43/55/5 60/55/17 62/53/13
f  62/53/13 48/53/1 43/55/5
f  52/56/6 56/56/28 61/57/24
f  61/57/24 47/57/7 52/56/6
f  28/10/8 21/51/32 56/58/28
f  56/58/28 52/8/6 28/10/8
f  27/5/4 20/50/31 21/52/32
f  21/52/32 28/11/8 27/5/4
f  47/57/7 61/57/24 60/59/17
f  60/59/17 43/59/5 47/57/7
f  48/60/1 51/61/33 55/62/34
f  55/62/34 53/63/2 48/60/1
f  43/64/5 49/65/35 51/61/33
f  51/61/33 48/60/1 43/64/5
f  52/66/6 54/67/36 50/68/37
f  50/68/37 47/69/7 52/66/6
f  47/69/7 50/68/37 49/70/35
f  49/70/35 43/71/5 47/69/7
f  57/72/25 64/73/38 79/74/39
f  79/74/39 73/75/9 57/72/25
f  72/76/22 78/77/40 63/78/41
f  63/78/41 56/79/28 72/76/22
f  57/72/25 59/80/42 64/73/38
f  56/81/28 63/78/41 58/82/43
f  53/63/2 55/62/34 59/80/42
f  59/80/42 57/83/25 53/63/2
f  56/81/28 58/82/43 54/67/36
f  54/67/36 52/66/6 56/81/28
f  48/84/1 55/85/34 15/86/44
f  15/86/44 29/87/3 48/84/1
f  28/88/8 14/89/45 54/90/46
f  54/90/46 47/91/7 28/88/8
f  33/92/26 19/93/47 24/94/48
f  24/94/48 42/95/12 33/92/26
f  41/96/19 23/97/49 18/98/50
f  18/98/50 32/99/29 41/96/19
f  22/100/30 10/101/51 19/93/47
f  19/93/47 33/92/26 22/100/30
f  32/99/29 18/98/50 9/102/52
f  9/102/52 21/103/32 32/99/29
f  29/87/3 15/86/44 10/101/51
f  10/101/51 22/100/30 29/87/3
f  21/103/32 9/102/52 14/89/45
f  14/89/45 28/88/8 21/103/32
f  42/104/12 39/105/53 35/106/54
f  35/106/54 40/107/16 42/104/12
f  40/107/16 35/106/54 38/108/55
f  38/108/55 41/109/19 40/107/16
f  73/110/9 66/111/56 25/112/57
f  25/112/57 42/113/12 73/110/9
f  41/114/19 26/115/58 67/116/59
f  67/116/59 72/117/22 41/114/19
f  27/118/4 5/119/60 1/120/61
f  1/120/61 29/121/3 27/118/4
f  28/122/8 2/123/62 5/119/60
f  5/119/60 27/118/4 28/122/8
f  57/124/25 69/125/63 1/126/64
f  1/126/64 22/127/30 57/124/25
f  21/128/32 2/129/65 68/130/66
f  68/130/66 56/131/28 21/128/32
f  48/132/1 37/133/67 34/134/68
f  34/134/68 43/135/5 48/132/1
f  43/136/5 34/137/68 36/138/69
f  36/138/69 47/139/7 43/136/5
f  57/140/25 77/141/70 17/142/71
f  17/142/71 33/143/26 57/140/25
f  32/144/29 16/145/72 76/146/73
f  76/146/73 56/147/28 32/144/29
f  22/148/30 8/149/74 6/150/75
f  6/150/75 20/151/31 22/148/30
f  20/152/31 6/153/75 7/154/76
f  7/154/76 21/155/32 20/152/31
f  10/156/51 4/157/77 8/149/74
f  8/149/74 22/148/30 10/156/51
f  21/155/32 7/154/76 3/158/78
f  3/158/78 9/159/52 21/155/32
f  33/160/26 13/161/79 11/162/80
f  11/162/80 30/163/27 33/160/26
f  30/163/27 11/162/80 12/164/81
f  12/164/81 32/165/29 30/163/27
f  43/166/5 31/167/82 5/168/60
f  5/168/60 27/169/4 43/166/5
