# 
# Wavefront OBJ file
# Converted by the DEEP Exploration Deep Exploration 6.5 x64 6.5.0.9182
# Right Hemisphere, LTD
# http://www.righthemisphere.com/
# 
#mtllib bun_a.mtl
# object bun
g bun
v -3.84924 165.88509 -10.88932
v -3.84604 166.05667 -12.46972
v -3.36988 160.61380 -11.62324
v -3.36688 160.82068 -12.38132
v -2.87536 160.39896 -10.12112
v -2.78664 161.76668 -15.70924
v -2.65476 165.51636 -13.29224
v -2.52616 166.60970 -15.65304
v -2.44796 165.30595 -9.47412
v -2.42868 161.32269 -13.34084
v -1.04244 164.28676 -18.73592
v -0.95736 162.42888 -17.75352
v -0.09928 157.63028 -9.90984
v -0.09924 167.22336 -8.99564
v -0.09736 158.82657 -10.96504
v -0.09736 168.02168 -9.52932
v -0.09428 159.27415 -11.85652
v -0.09424 168.06776 -11.13184
v -0.09268 160.51884 -13.61904
v -0.09264 167.65556 -12.24364
v -0.08908 160.89516 -16.00304
v -0.08904 167.67796 -15.69412
v -0.07724 162.33948 -17.85832
v -0.07724 164.10397 -18.88792
v -0.07724 165.09268 -18.34092
v 0.80284 162.43135 -17.81304
v 0.88796 164.28488 -18.69152
v 2.24324 161.32936 -13.49872
v 2.24944 165.29997 -9.33392
v 2.34804 166.60376 -15.51672
v 2.46936 165.51135 -13.17424
v 2.60856 161.77444 -15.89164
v 2.67692 160.40695 -10.30884
v 3.17524 160.62364 -11.85444
v 3.17824 160.83055 -12.61264
v 3.65444 165.87769 -10.71652
v 3.65764 166.04922 -12.29692
# 37 verticies
vt 0.62024 0.21289
vt 0.61586 0.23727
vt 0.62231 0.21933
vt 0.61425 0.23359
vt 0.61494 0.23889
vt 0.62070 0.25775
vt 0.61310 0.25614
vt 0.62024 0.26166
vt 0.61471 0.24510
vt 0.69454 0.21036
vt 0.69155 0.19932
vt 0.68833 0.21059
vt 0.69454 0.19932
vt 0.69454 0.22738
vt 0.68626 0.22531
vt 0.69454 0.23658
vt 0.68557 0.23705
vt 0.69454 0.27454
vt 0.68741 0.26327
vt 0.68741 0.27454
vt 0.69454 0.26419
vt 0.68534 0.24855
vt 0.69454 0.24671
vt 0.68626 0.19886
vt 0.68028 0.21105
vt 0.67706 0.22485
vt 0.67729 0.23705
vt 0.67936 0.26327
vt 0.68396 0.27523
vt 0.67614 0.24901
vt 0.67062 0.19886
vt 0.66878 0.20967
vt 0.66119 0.22554
vt 0.66371 0.23727
vt 0.67085 0.26465
vt 0.66993 0.27523
vt 0.66211 0.24855
vt 0.63680 0.20300
vt 0.63680 0.21358
vt 0.63795 0.22876
vt 0.63864 0.23705
vt 0.63772 0.26051
vt 0.63680 0.27132
vt 0.63795 0.24556
# 44 texture verticies
vn 0.03769 -0.71830 -0.69471
vn 0.00354 -0.17489 -0.98458
vn 0.50673 -0.45297 -0.73351
vn 0.48013 0.30178 -0.82365
vn -0.05066 0.62670 -0.77762
vn -0.30348 -0.60640 -0.73497
vn -0.50362 0.08987 -0.85924
vn 0.79601 -0.59146 -0.12860
vn 0.06759 -0.88367 -0.46321
vn 0.80123 -0.59481 0.06504
vn -0.18228 -0.82297 -0.53804
vn 0.78809 0.10883 0.60586
vn 0.85372 0.28861 0.43343
vn 0.18115 0.54929 0.81576
vn -0.01235 0.86956 0.49368
vn -0.85534 -0.50454 -0.11759
vn -0.85917 -0.30952 0.40746
vn -0.84379 0.39377 0.36463
vn -0.60970 0.31391 0.72782
vn 0.00990 -0.86578 -0.50033
vn 0.72305 -0.52137 -0.45319
vn 0.73508 0.50644 -0.45075
vn -0.02849 0.97404 -0.22457
vn -0.64794 -0.51926 -0.55727
vn -0.79386 0.46173 -0.39572
vn -0.02425 -0.91674 -0.39874
vn 0.67001 -0.55172 -0.49669
vn 0.83652 0.46443 -0.29075
vn 0.08480 0.97144 -0.22161
vn -0.75448 -0.51807 -0.40295
vn -0.77540 0.46234 -0.43011
vn 0.02388 -0.92190 -0.38669
vn 0.74897 -0.55069 -0.36849
vn 0.84326 0.46018 -0.27774
vn -0.05024 0.94306 -0.32881
vn -0.70840 -0.60252 -0.36762
vn -0.82487 0.48692 -0.28721
# 37 normals
#usemtl casual09_f_mediumSG
f  23/1/1 24/2/2 26/3/3
f  27/4/4 26/3/3 24/2/2
f  24/2/2 25/5/5 27/4/4
f  12/6/6 24/7/2 23/8/1
f  24/7/2 12/6/6 11/9/7
f  11/9/7 25/5/5 24/2/2
f  33/10/8 15/11/9 34/12/10
f  15/11/9 33/10/8 13/13/11
f  29/14/12 34/12/10 36/15/13
f  34/12/10 29/14/12 33/10/8
f  14/16/14 36/15/13 16/17/15
f  36/15/13 14/16/14 29/14/12
f  13/18/11 3/19/16 15/20/9
f  3/19/16 13/18/11 5/21/17
f  5/21/17 1/22/18 3/19/16
f  1/22/18 5/21/17 9/23/19
f  9/23/19 16/17/15 1/22/18
f  16/17/15 9/23/19 14/16/14
f  34/12/10 17/24/20 35/25/21
f  17/24/20 34/12/10 15/11/9
f  36/15/13 35/25/21 37/26/22
f  35/25/21 36/15/13 34/12/10
f  16/17/15 37/26/22 18/27/23
f  37/26/22 16/17/15 36/15/13
f  15/20/9 4/28/24 17/29/20
f  4/28/24 15/20/9 3/19/16
f  3/19/16 2/30/25 4/28/24
f  2/30/25 3/19/16 1/22/18
f  1/22/18 18/27/23 2/30/25
f  18/27/23 1/22/18 16/17/15
f  35/25/21 19/31/26 28/32/27
f  19/31/26 35/25/21 17/24/20
f  37/26/22 28/32/27 31/33/28
f  28/32/27 37/26/22 35/25/21
f  18/27/23 31/33/28 20/34/29
f  31/33/28 18/27/23 37/26/22
f  17/29/20 10/35/30 19/36/26
f  10/35/30 17/29/20 4/28/24
f  4/28/24 7/37/31 10/35/30
f  7/37/31 4/28/24 2/30/25
f  2/30/25 20/34/29 7/37/31
f  20/34/29 2/30/25 18/27/23
f  28/32/27 21/38/32 32/39/33
f  21/38/32 28/32/27 19/31/26
f  31/33/28 32/39/33 30/40/34
f  32/39/33 31/33/28 28/32/27
f  20/34/29 30/40/34 22/41/35
f  30/40/34 20/34/29 31/33/28
f  19/36/26 6/42/36 21/43/32
f  6/42/36 19/36/26 10/35/30
f  10/35/30 8/44/37 6/42/36
f  8/44/37 10/35/30 7/37/31
f  7/37/31 22/41/35 8/44/37
f  22/41/35 7/37/31 20/34/29
f  32/39/33 23/1/1 26/3/3
f  23/1/1 32/39/33 21/38/32
f  30/40/34 26/3/3 27/4/4
f  26/3/3 30/40/34 32/39/33
f  22/41/35 27/4/4 25/5/5
f  27/4/4 22/41/35 30/40/34
f  21/43/32 12/6/6 23/8/1
f  12/6/6 21/43/32 6/42/36
f  6/42/36 11/9/7 12/6/6
f  11/9/7 6/42/36 8/44/37
f  8/44/37 25/5/5 11/9/7
f  25/5/5 8/44/37 22/41/35
