# 
# Wavefront OBJ file
# Converted by the DEEP Exploration Deep Exploration 6.5 x64 6.5.0.9182
# Right Hemisphere, LTD
# http://www.righthemisphere.com/
# 
#mtllib long_hair_d.mtl
# object long_hair_d_healed
g long_hair_d_healed
v -3.00767 147.97969 -12.18439
v -3.25567 157.56799 -12.37259
v -0.21398 157.42146 -13.35428
v -0.21399 147.83315 -13.16595
v -7.03630 148.59952 -8.02770
v -7.01033 157.86250 -8.73126
v -8.65234 148.52716 -2.92064
v -8.90463 156.98071 -3.62420
v -8.59158 147.52838 1.15926
v -7.32352 155.98181 0.45570
v -7.23539 147.04890 3.92665
v -6.80422 155.50235 3.22309
v -0.14073 163.13060 -11.82581
v -2.23145 163.53700 -11.89106
v -6.02196 163.93588 -8.73538
v -4.81828 164.06313 -10.01817
v -6.93882 163.79239 -7.17434
v -8.30676 162.11606 1.39854
v -8.44098 162.65782 -0.79831
v -8.34078 163.21281 -3.04839
v -7.36346 161.31088 3.40089
v 2.57969 147.97968 -12.18437
v 2.82771 157.56798 -12.37258
v 6.60830 148.59950 -8.02769
v 7.21394 157.86249 -8.73125
v 8.97328 156.98070 -3.62419
v 8.22434 148.52715 -2.92062
v 6.80902 155.98180 0.45571
v 8.16355 147.52837 1.15927
v 6.37622 155.50233 3.22310
v 6.80737 147.04889 3.92666
v 2.08583 163.53760 -11.38197
v 4.15520 164.12276 -10.71326
v 6.98024 163.87498 -7.17432
v 8.31823 163.25925 -3.04838
v 7.98544 162.11687 1.39855
v 8.47298 162.66127 -0.79829
v 6.80739 161.15649 3.92666
v -8.62229 159.49777 -3.62420
v 7.65858 159.08263 -3.62419
# 40 verticies
vt 0.65704 0.19807
vt 0.65506 0.24720
vt 0.64108 0.24702
vt 0.64161 0.19771
vt 0.68340 0.19915
vt 0.68089 0.24810
vt 0.68125 0.19915
vt 0.66062 0.19915
vt 0.66278 0.24972
vt 0.68358 0.24810
vt 0.64377 0.19789
vt 0.64717 0.25330
vt 0.63086 0.19735
vt 0.63139 0.25133
vt 0.64161 0.27948
vt 0.65471 0.27877
vt 0.68053 0.28038
vt 0.67198 0.27985
vt 0.67758 0.27898
vt 0.68376 0.28038
vt 0.64664 0.27859
vt 0.65595 0.27715
vt 0.66403 0.27590
vt 0.62529 0.27285
vt 0.68376 0.19807
vt 0.69882 0.19771
vt 0.69936 0.24702
vt 0.68573 0.24720
vt 0.65775 0.19915
vt 0.66009 0.24810
vt 0.68860 0.19915
vt 0.69129 0.24810
vt 0.67174 0.24972
vt 0.66690 0.19915
vt 0.65255 0.25330
vt 0.64897 0.19789
vt 0.62763 0.25007
vt 0.63534 0.19735
vt 0.69222 0.27088
vt 0.68591 0.27877
vt 0.69882 0.26263
vt 0.66044 0.28038
vt 0.69147 0.27697
vt 0.67085 0.27590
vt 0.65202 0.27859
vt 0.66119 0.27728
vt 0.62512 0.28486
vt 0.66029 0.27741
vt 0.66132 0.27726
# 49 texture verticies
vn -0.30819 -0.02664 -0.95095
vn -0.33229 -0.01852 -0.94299
vn -0.69735 -0.05234 -0.71482
vn -0.72010 -0.03223 -0.69312
vn -0.94432 -0.03885 -0.32673
vn -0.99915 -0.02724 0.03090
vn -0.99230 0.01369 -0.12310
vn -0.80261 0.09430 -0.58900
vn -0.98695 0.15238 0.05200
vn -0.93579 -0.09805 0.33864
vn -0.88914 0.08281 0.45008
vn -0.96438 0.16206 0.20905
vn 0.05274 0.19273 -0.97983
vn 0.00040 0.25861 -0.96598
vn -0.33117 0.17625 -0.92696
vn -0.43827 0.10134 -0.89311
vn -0.85792 0.08642 -0.50646
vn -0.66039 0.07847 -0.74681
vn -0.91131 0.05000 -0.40868
vn -0.97798 -0.07620 0.19431
vn -0.99731 0.06888 0.02525
vn -0.98091 0.10393 -0.16436
vn -0.95388 -0.15064 0.25964
vn -0.98095 -0.09956 0.16683
vn -0.91490 -0.20050 0.35038
vn 0.33231 -0.01852 -0.94299
vn 0.30820 -0.02664 -0.95095
vn 0.72010 -0.03223 -0.69312
vn 0.63952 -0.09971 -0.76228
vn 0.94246 -0.09801 -0.31963
vn 0.87793 0.08310 -0.47153
vn 0.99918 -0.03808 0.01403
vn 0.99323 -0.08107 0.08317
vn 0.88856 -0.13715 0.43778
vn 0.98522 0.16239 0.05443
vn 0.96863 0.17028 0.18099
vn 0.88914 0.08281 0.45008
vn 0.20710 0.18515 -0.96064
vn 0.58008 0.15274 -0.80011
vn 0.34397 0.17314 -0.92288
vn 0.87845 0.15149 -0.45318
vn 0.97021 0.11621 -0.21256
vn 0.94082 -0.12651 0.31441
vn 0.99524 0.04456 0.08664
vn 0.95739 -0.16067 0.23999
vn 0.91291 -0.22717 0.33910
vn 0.98608 -0.09240 0.13821
vn 0.95423 0.01824 0.29853
vn 0.95524 0.01974 0.29518
vn 0.99949 0.02516 0.01957
vn 0.99994 -0.00338 -0.01001
vn 0.96761 0.07935 -0.23965
vn -0.98227 0.02011 0.18640
vn -0.99835 -0.05188 0.02454
vn -0.99488 0.10004 -0.01410
vn -0.99507 0.07037 0.06983
vn -0.98565 0.06520 -0.15569
vn 0.99711 -0.07164 -0.02529
vn 0.99439 0.05430 -0.09077
vn -0.96195 0.25702 -0.09266
vn -0.93961 0.31656 -0.13008
vn -0.98441 0.14098 0.10517
# 62 normals
#usemtl casual20_f_highpoly_hairSG
f  1/1/1 2/2/1 3/3/1
f  3/3/2 4/4/2 1/1/2
f  5/5/3 6/6/3 2/2/3
f  2/2/4 1/1/4 5/5/4
f  5/7/5 7/8/6 8/9/7
f  8/9/7 6/10/8 5/7/5
f  7/8/9 9/11/9 10/12/9
f  10/12/10 8/9/7 7/8/6
f  9/11/11 11/13/11 12/14/11
f  12/14/12 10/12/12 9/11/12
f  13/15/13 3/3/14 2/2/15
f  2/2/15 14/16/16 13/15/13
f  6/6/8 15/17/17 16/18/18
f  6/6/8 16/18/18 14/16/16
f  6/6/8 14/16/16 2/2/15
f  8/9/7 17/19/19 15/20/17
f  15/20/17 6/10/8 8/9/7
f  8/9/7 10/12/10 18/21/20
f  8/9/7 18/21/20 19/22/21
f  8/9/7 19/22/21 20/23/22
f  10/12/23 12/14/24 21/24/23
f  21/24/23 18/21/25 10/12/23
f  22/25/26 4/26/26 3/27/26
f  3/27/27 23/28/27 22/25/27
f  24/29/28 22/25/28 23/28/28
f  23/28/29 25/30/29 24/29/29
f  24/31/30 25/32/31 26/33/32
f  26/33/32 27/34/33 24/31/30
f  27/34/33 26/33/32 28/35/34
f  28/35/35 29/36/35 27/34/35
f  29/36/36 28/35/36 30/37/36
f  30/37/37 31/38/37 29/36/37
f  32/39/38 33/40/39 23/28/40
f  23/28/40 3/27/14 13/41/13
f  32/39/38 23/28/40 13/41/13
f  33/40/39 34/42/41 25/30/31
f  25/30/31 23/28/40 33/40/39
f  25/32/31 34/43/41 35/44/42
f  35/44/42 26/33/32 25/32/31
f  36/45/43 28/35/34 26/33/32
f  26/33/32 35/44/42 37/46/44
f  36/45/43 26/33/32 37/46/44
f  28/35/45 36/45/46 38/47/45
f  38/47/45 30/37/47 28/35/45
f  5/7/48 6/10/49 39/9/50
f  39/9/50 7/8/51 5/7/48
f  7/8/51 39/9/50 10/12/52
f  24/31/53 27/34/54 40/33/55
f  40/33/55 25/32/56 24/31/53
f  28/35/57 40/33/55 27/34/54
f  39/9/50 20/23/58 18/21/59
f  18/21/59 10/12/52 39/9/50
f  40/33/55 28/35/57 36/45/60
f  40/33/55 36/45/60 37/48/61
f  40/33/62 37/49/62 35/44/62
f  8/9/7 20/23/22 17/19/19
